<svg xmlns="http://www.w3.org/2000/svg" width="17.564" height="13.821" viewBox="0 0 17.564 13.821"><defs><style>.a{fill:#fff;stroke:#fff;stroke-width:1.5px;}</style></defs><g transform="translate(0.767 0.815)"><path class="a" d="M.3,66.929a.335.335,0,0,1-.238-.1.331.331,0,0,1,.009-.467l6-5.8a.33.33,0,1,1,.457.476l-6,5.8A.317.317,0,0,1,.3,66.929Z" transform="translate(0.027 -60.473)"/><path class="a" d="M6.308,251.958a.325.325,0,0,1-.229-.094l-6-5.8a.324.324,0,0,1-.075-.36A.331.331,0,0,1,.31,245.5H10.3a5.731,5.731,0,0,1,5.725,5.725v.4a.329.329,0,0,1-.658,0v-.4a5.07,5.07,0,0,0-5.064-5.064H1.125l5.412,5.23a.331.331,0,0,1,.009.467A.326.326,0,0,1,6.308,251.958Z" transform="translate(0.023 -239.702)"/></g></svg>