<svg xmlns="http://www.w3.org/2000/svg" width="14" height="14" viewBox="0 0 14 14"><defs><style>.a{fill:#4ea1b5;}.b{fill:none;}</style></defs><g transform="translate(-0.46)"><path class="a" d="M7.352,8.773l4.437-4.436a1.049,1.049,0,0,1,1.479,0l.371.37a1.049,1.049,0,0,1,0,1.478L10.252,9.571l3.385,3.385a1.049,1.049,0,0,1,0,1.478l-.371.37a1.048,1.048,0,0,1-1.479,0L7.352,10.368a1.037,1.037,0,0,1-.3-.8A1.04,1.04,0,0,1,7.352,8.773Z" transform="translate(-3.621 -2.171)"/><rect class="b" width="14" height="14" transform="translate(0.46)"/></g></svg>