<svg xmlns="http://www.w3.org/2000/svg" width="14" height="14" viewBox="0 0 14 14"><defs><style>.a{fill:#b06544;}.b{fill:none;}</style></defs><g transform="translate(0.442 14) rotate(-90)"><path class="a" d="M.3,4.741,4.738.3A1.049,1.049,0,0,1,6.216.3l.371.37a1.049,1.049,0,0,1,0,1.478L3.2,5.539,6.587,8.924a1.049,1.049,0,0,1,0,1.478l-.371.37a1.048,1.048,0,0,1-1.479,0L.3,6.336a1.037,1.037,0,0,1-.3-.8A1.04,1.04,0,0,1,.3,4.741Z" transform="translate(3.137 1.861)"/><rect class="b" width="14" height="14" transform="translate(0 -0.442)"/></g></svg>