<svg xmlns="http://www.w3.org/2000/svg" width="13.449" height="17.779" viewBox="0 0 13.449 17.779"><defs><style>.a{fill:#b06544;}</style></defs><path class="a" d="M14.328,6.08H13.207v5.08l-2.241-2.54-2.241,2.54V6.08H5.362A1.2,1.2,0,0,1,4.241,4.81,1.2,1.2,0,0,1,5.362,3.54h8.966a1.206,1.206,0,0,0,1.121-1.27A1.206,1.206,0,0,0,14.328,1H5.362A3.607,3.607,0,0,0,2,4.81V14.969a3.608,3.608,0,0,0,3.362,3.81h8.966a1.206,1.206,0,0,0,1.121-1.27V7.35A1.206,1.206,0,0,0,14.328,6.08Z" transform="translate(-2 -1)"/></svg>