<svg xmlns="http://www.w3.org/2000/svg" width="15.554" height="22.012" viewBox="0 0 15.554 22.012"><defs><style>.a{fill:#4ea1b5;}</style></defs><g transform="translate(0)"><path class="a" d="M36.3,19.435H20.792v2.577H36.3ZM36.047,9.128a1.018,1.018,0,0,0-1.44,0l-5.053,5.053V1.019a1.019,1.019,0,1,0-2.038,0V14.181L22.531,9.2a1.019,1.019,0,1,0-1.441,1.441l6.724,6.724a.973.973,0,0,0,.075.068l.036.027.043.032.044.027.041.024c.016.009.031.016.046.023l.044.021.046.016.048.017.046.012c.017,0,.033.009.05.012l.054.008.045.007a1.036,1.036,0,0,0,.2,0l.045-.007c.018,0,.036,0,.053-.008l.05-.012.046-.012.048-.017a.393.393,0,0,0,.046-.016l.044-.021c.016-.007.031-.014.046-.023l.041-.024c.015-.009.03-.017.045-.027l.044-.032.036-.027a1.084,1.084,0,0,0,.108-.1l.036-.032,6.724-6.724a1.02,1.02,0,0,0,0-1.442" transform="translate(-20.791 0)"/></g></svg>