<svg xmlns="http://www.w3.org/2000/svg" width="20" height="21.621" viewBox="0 0 20 21.621"><defs><style>.a{fill:#b06544;}</style></defs><g transform="translate(0 13.03)"><path class="a" d="M15.056,37.591H2.257l.037-.486C2.5,34.36,4.052,32.721,6.9,32.229v-.515H6V29h5.426v2.713h-.9v.515a4.872,4.872,0,0,1,4.5,4.877Zm-11.806-.9H14.065c-.312-2.174-1.581-3.3-4.054-3.621l-.393-.052V30.809h.9v-.9H6.9v.9h.9v2.205l-.393.052C4.906,33.394,3.571,34.55,3.25,36.687Z" transform="translate(-2.257 -29)"/></g><g transform="translate(7.571 0.217)"><path class="a" d="M19.452,12.58a.452.452,0,0,1-.32-.772L30.142.8a.452.452,0,0,1,.639.639L19.772,12.447A.451.451,0,0,1,19.452,12.58Z" transform="translate(-19 -0.665)"/></g><g transform="translate(8.499 0)"><path class="a" d="M21.995,10.9a.451.451,0,0,1-.32-.132c-1.434-1.434-.311-4.8,2.558-7.674A11.941,11.941,0,0,1,28.562.21a.452.452,0,0,1,.6.427V3.718a.452.452,0,1,1-.9,0V1.3a11.988,11.988,0,0,0-3.385,2.428c-2.638,2.638-3.466,5.487-2.558,6.395a.452.452,0,0,1-.319.772Z" transform="translate(-21.053 -0.185)"/></g><g transform="translate(12.545 6.247)"><path class="a" d="M34.725,14.9H30.452a.452.452,0,0,1,0-.9h4.273a.452.452,0,0,1,0,.9Z" transform="translate(-30 -14)"/></g><g transform="translate(8.989 8.056)"><path class="a" d="M23.925,21.14a2.26,2.26,0,0,1-1.657-.613.452.452,0,1,1,.639-.639c.735.734,2.473.313,4.362-.982H24.335a.452.452,0,1,1,0-.9h4.273a.452.452,0,0,1,.291.8A8.552,8.552,0,0,1,23.925,21.14Z" transform="translate(-22.136 -18.001)"/></g><g transform="translate(14.354 0.217)"><path class="a" d="M38.273,5.79H34.452a.452.452,0,0,1,0-.9h3.555c.835-1.553.97-2.832.353-3.449A.452.452,0,1,1,39,.8c.967.967.846,2.7-.334,4.766A.452.452,0,0,1,38.273,5.79Z" transform="translate(-34 -0.665)"/></g></svg>