<svg xmlns="http://www.w3.org/2000/svg" width="17.564" height="13.821" viewBox="0 0 17.564 13.821"><defs><style>.a{fill:#fff;stroke:#fff;stroke-width:1.5px;}</style></defs><g transform="translate(0.75 0.815)"><path class="a" d="M6.3,66.929a.335.335,0,0,0,.238-.1.331.331,0,0,0-.009-.467l-6-5.8a.33.33,0,1,0-.457.476l6,5.8A.317.317,0,0,0,6.3,66.929Z" transform="translate(9.414 -60.473)"/><path class="a" d="M9.695,251.958a.325.325,0,0,0,.229-.094l6-5.8a.324.324,0,0,0,.075-.36.331.331,0,0,0-.307-.207H5.7a5.731,5.731,0,0,0-5.725,5.725v.4a.329.329,0,0,0,.658,0v-.4A5.07,5.07,0,0,1,5.7,246.158h9.178l-5.412,5.23a.331.331,0,0,0-.009.467A.326.326,0,0,0,9.695,251.958Z" transform="translate(0.023 -239.702)"/></g></svg>