<svg xmlns="http://www.w3.org/2000/svg" width="22.162" height="16.001" viewBox="0 0 22.162 16.001"><defs><style>.a{fill:#b06544;}</style></defs><g transform="translate(0)"><path class="a" d="M87.87,118.986H81.552a5.675,5.675,0,0,0-4.237,2.175,5.675,5.675,0,0,0-4.237-2.175H66.76a.525.525,0,0,0-.526.526v7.215a.526.526,0,0,0,1.051,0v-6.69h5.793a4.921,4.921,0,0,1,3.711,2.163v10.692a10.468,10.468,0,0,0-5.127-1.758,32.165,32.165,0,0,0-4.377-.265v-1.651a.526.526,0,0,0-1.051,0v5.243a.525.525,0,0,0,.526.526H87.87a.525.525,0,0,0,.526-.526v-14.95A.526.526,0,0,0,87.87,118.986Zm-6.318,1.051h5.793v10.832h-.214a29.472,29.472,0,0,0-5.481.485,8.805,8.805,0,0,0-3.81,1.54V122.2A4.89,4.89,0,0,1,81.552,120.037ZM67.285,131.921a31.422,31.422,0,0,1,4.235.254c2.376.322,4.049.936,4.849,1.761H67.285Zm10.968,2.015c1.4-1.472,5.342-2.016,8.878-2.016h.214v2.015H78.253Z" transform="translate(-66.234 -118.986)"/><path class="a" d="M316.268,169.047h3.717a.526.526,0,1,0,0-1.051h-3.717a.526.526,0,1,0,0,1.051Z" transform="translate(-301.173 -165.134)"/><path class="a" d="M316.268,223.149h3.717a.526.526,0,1,0,0-1.051h-3.717a.526.526,0,1,0,0,1.051Z" transform="translate(-301.173 -216.077)"/><path class="a" d="M316.268,277.252h3.717a.526.526,0,1,0,0-1.051h-3.717a.526.526,0,1,0,0,1.051Z" transform="translate(-301.173 -267.021)"/><path class="a" d="M115.133,169.047h3.717a.526.526,0,0,0,0-1.051h-3.717a.526.526,0,1,0,0,1.051Z" transform="translate(-111.782 -165.134)"/><path class="a" d="M115.133,223.149h3.717a.526.526,0,1,0,0-1.051h-3.717a.526.526,0,1,0,0,1.051Z" transform="translate(-111.782 -216.077)"/><path class="a" d="M115.133,277.252h3.717a.526.526,0,0,0,0-1.051h-3.717a.526.526,0,1,0,0,1.051Z" transform="translate(-111.782 -267.021)"/></g></svg>