<svg xmlns="http://www.w3.org/2000/svg" width="18.459" height="18.459" viewBox="0 0 18.459 18.459"><defs><style>.a{fill:#b06544;}</style></defs><path class="a" d="M22.767,19.075a3.681,3.681,0,0,0-2.781,1.269L15.3,18a3.667,3.667,0,0,0,0-1.546l4.685-2.342a3.683,3.683,0,1,0-.828-1.65l-4.685,2.342a3.692,3.692,0,1,0,0,4.845l4.685,2.342a3.691,3.691,0,1,0,3.609-2.919Zm0-9.229a1.846,1.846,0,1,1-1.846,1.846A1.846,1.846,0,0,1,22.767,9.846ZM11.692,19.075a1.846,1.846,0,1,1,1.846-1.846A1.846,1.846,0,0,1,11.692,19.075Zm11.075,5.538a1.846,1.846,0,1,1,1.846-1.846A1.846,1.846,0,0,1,22.767,24.613Z" transform="translate(-8 -8)"/></svg>