<svg xmlns="http://www.w3.org/2000/svg" width="16" height="16" viewBox="0 0 16 16"><defs><style>.a{fill:#b06544;}</style></defs><path class="a" d="M79.036,70.353H78.4a.974.974,0,0,1-.951-.975.911.911,0,0,1,.313-.687l.409-.4a1.022,1.022,0,0,0,0-1.454l-.93-.921a1.059,1.059,0,0,0-1.46,0l-.392.392a.943.943,0,0,1-.709.321.975.975,0,0,1-.98-.946v-.637A1.042,1.042,0,0,0,72.68,64H71.412a1.036,1.036,0,0,0-1.018,1.046v.633a.975.975,0,0,1-.98.946.933.933,0,0,1-.692-.308l-.4-.4a1.028,1.028,0,0,0-.73-.292,1.054,1.054,0,0,0-.73.292l-.938.916a1.025,1.025,0,0,0,0,1.45l.392.392a.943.943,0,0,1,.325.7.972.972,0,0,1-.951.975h-.634A1.033,1.033,0,0,0,64,71.365v1.266a1.036,1.036,0,0,0,1.051,1.012h.634a.974.974,0,0,1,.951.975.943.943,0,0,1-.325.7l-.392.387a1.025,1.025,0,0,0,0,1.45l.93.925a1.028,1.028,0,0,0,.73.292,1.054,1.054,0,0,0,.73-.292l.4-.4a.926.926,0,0,1,.692-.308.975.975,0,0,1,.98.946v.633A1.039,1.039,0,0,0,71.408,80h1.268a1.036,1.036,0,0,0,1.018-1.046v-.633a.969.969,0,0,1,1.689-.625l.392.392a1.059,1.059,0,0,0,1.46,0l.93-.925a1.03,1.03,0,0,0,0-1.454l-.409-.4a.918.918,0,0,1-.313-.687.972.972,0,0,1,.951-.975h.634A.969.969,0,0,0,80,72.635V71.365A.958.958,0,0,0,79.036,70.353ZM75.378,72h0A3.337,3.337,0,0,1,68.7,72h0a3.337,3.337,0,0,1,6.674,0Z" transform="translate(-64 -64)"/></svg>