<svg xmlns="http://www.w3.org/2000/svg" width="24" height="24" viewBox="0 0 24 24"><defs><style>.a{fill:#4ea1b5;}</style></defs><path class="a" d="M15.133,23.6V20.446a8.943,8.943,0,0,0,0-16.89V.4a11.977,11.977,0,0,1,0,23.2Zm-3,.392-6-6h-4.5a1.5,1.5,0,0,1-1.5-1.5v-9A1.5,1.5,0,0,1,1.633,6h4.5l6-6a1.334,1.334,0,0,1,1.5,1.5V22.5A1.334,1.334,0,0,1,12.133,23.995ZM10.633,6l-3,3h-4.5v6h4.5l3,3V6Zm9,6a5.983,5.983,0,0,1-4.5,5.785v-3.2a2.973,2.973,0,0,0,0-5.165v-3.2A5.983,5.983,0,0,1,19.633,12Z" transform="translate(-0.133 -0.001)"/></svg>