<svg xmlns="http://www.w3.org/2000/svg" width="15.712" height="14" viewBox="0 0 15.712 14"><defs><style>.a{fill:#b06544;}</style></defs><path class="a" d="M16.966,5.476V5.333A2.488,2.488,0,0,0,14.347,3a2.488,2.488,0,0,0-2.619,2.333H9.983A2.488,2.488,0,0,0,7.364,3,2.488,2.488,0,0,0,4.746,5.333v.143A2.367,2.367,0,0,0,3,7.667v7A2.491,2.491,0,0,0,5.619,17H16.093a2.491,2.491,0,0,0,2.619-2.333v-7A2.367,2.367,0,0,0,16.966,5.476Zm-3.491-.143a.879.879,0,0,1,1.746,0V6.889a.879.879,0,0,1-1.746,0Zm-6.983,0a.829.829,0,0,1,.873-.778.829.829,0,0,1,.873.778V6.889a.829.829,0,0,1-.873.778.829.829,0,0,1-.873-.778Zm10.474,9.333a.83.83,0,0,1-.873.778H5.619a.83.83,0,0,1-.873-.778V10h12.22Zm0-5.444H4.746V7.667a.83.83,0,0,1,.873-.778A1.66,1.66,0,0,0,7.364,8.444,1.66,1.66,0,0,0,9.11,6.889H12.6a1.66,1.66,0,0,0,1.746,1.556,1.66,1.66,0,0,0,1.746-1.556.83.83,0,0,1,.873.778Z" transform="translate(-3 -3)"/></svg>