<svg xmlns="http://www.w3.org/2000/svg" width="19.004" height="19.004" viewBox="0 0 19.004 19.004"><defs><style>.a{fill:none;}.b{fill:#b06544;}</style></defs><path class="a" d="M0,0H19V19H0Z"/><path class="b" d="M11.4,14.353,9.388,12.366l.024-.024a13.872,13.872,0,0,0,2.938-5.171h2.32V5.584H9.126V4H7.543V5.584H2V7.159h8.845A12.505,12.505,0,0,1,8.335,11.4,12.487,12.487,0,0,1,6.505,8.751H4.922a13.906,13.906,0,0,0,2.36,3.611L3.255,16.341l1.12,1.12L8.335,13.5,10.8,15.964Zm4.458-4.018H14.273l-3.563,9.5h1.584l.891-2.375h3.761l.891,2.375H19.42Zm-2.079,5.543,1.287-3.433,1.287,3.433Z" transform="translate(-1.208 -2.416)"/></svg>