<svg xmlns="http://www.w3.org/2000/svg" width="24.924" height="24.924" viewBox="0 0 24.924 24.924"><defs><style>.a{fill:none;}.b{fill:#4ea1b5;}</style></defs><g transform="translate(0)"><path class="a" d="M0,0H24.924V24.924H0Z" transform="translate(0 0)"/><path class="b" d="M14.327,17.578l-2.638-2.607.031-.031a18.193,18.193,0,0,0,3.853-6.781h3.043V6.077H11.346V4H9.269V6.077H2V8.144H13.6a16.4,16.4,0,0,1-3.292,5.566,16.377,16.377,0,0,1-2.4-3.479H5.832a18.238,18.238,0,0,0,3.095,4.735L3.646,20.185l1.469,1.469,5.192-5.192,3.23,3.23Zm5.847-5.27H18.1L13.423,24.77H15.5l1.168-3.115H21.6L22.77,24.77h2.077Zm-2.726,7.269,1.688-4.5,1.688,4.5Z" transform="translate(-0.961 -1.923)"/></g></svg>